<?xml version="1.0" encoding="UTF-8" standalone="no"?>
<!-- Created with Inkscape (http://www.inkscape.org/) -->
<svg
   xmlns:dc="http://purl.org/dc/elements/1.1/"
   xmlns:cc="http://web.resource.org/cc/"
   xmlns:rdf="http://www.w3.org/1999/02/22-rdf-syntax-ns#"
   xmlns:svg="http://www.w3.org/2000/svg"
   xmlns="http://www.w3.org/2000/svg"
   xmlns:sodipodi="http://sodipodi.sourceforge.net/DTD/sodipodi-0.dtd"
   xmlns:inkscape="http://www.inkscape.org/namespaces/inkscape"
   width="498.0155"
   height="600.4318"
   id="svg2"
   sodipodi:version="0.32"
   inkscape:version="0.45.1"
   version="1.0"
   inkscape:output_extension="org.inkscape.output.svg.inkscape">
  <g
     inkscape:label="Capa 1"
     inkscape:groupmode="layer"
     id="layer1"
     transform="scale(0.5) translate(1833.8073,766.67346)"
     style="display:inline">
    <path class="barrio" id="31" d="M -1518.2464,-536.38984 L -1582.5321,-407.81841 L -1543.2849,-360.14329 L -1408.9992,-400.14329 L -1417.5706,-508.71472 L -1518.2464,-536.38984 z " />
      <text xml:space="preserve" style="font-size:15.30755329px;font-style:normal;font-weight:normal;fill:#000000;fill-opacity:1;stroke:none;stroke-width:1px;stroke-linecap:butt;stroke-linejoin:round;stroke-opacity:1;font-family:Bitstream Vera Sans" x="-1520.9304" y="-443.67557" id="text4513">31</text>
    
    
      <path class="barrio" id="22" d="M -1624.6911,-67.495983 L -1627.9724,-69.652233 L -1632.7849,-69.402233 L -1634.0349,-68.370983 L -1638.5661,-67.370983 L -1647.1599,-67.870983 L -1652.7224,-69.652233 L -1657.2536,-71.933483 L -1658.0349,-74.433483 L -1662.0661,-77.964733 L -1666.3474,-83.027233 L -1670.6599,-109.80848 L -1671.9099,-110.80848 L -1673.1375,-110.52469 L -1676.7224,-98.683483 L -1679.7536,-90.620983 L -1681.7536,-86.058483 L -1687.3161,-84.027233 L -1686.5661,-80.245983 L -1685.0349,-77.464733 L -1688.8474,-46.402233 L -1691.8786,-24.933483 L -1697.1599,4.8477666 L -1700.1911,21.535267 L -1701.9724,29.597767 L -1701.7224,31.629017 L -1707.0036,37.441517 L -1711.3161,41.222767 L -1708.2849,46.535267 L -1704.5036,52.847767 L -1702.9724,60.410267 L -1701.2224,66.722767 L -1700.1911,70.504017 L -1701.7224,75.066517 L -1704.7536,82.629017 L -1715.3474,87.441517 L -1732.0036,94.504017 L -1743.1286,99.035267 L -1763.0661,104.34777 L -1779.2536,109.41027 L -1805.5036,119.25402 L -1813.0974,122.28527 L -1745.1599,240.47277 L -1691.5974,354.09777 L -1670.6497,351.59267 L -1671.9099,337.19157 L -1672.9099,330.12907 L -1674.1911,322.78527 L -1674.4411,315.47277 L -1674.6911,307.91027 L -1674.6911,302.84777 L -1673.9411,302.09777 L -1674.4411,299.81657 L -1675.9411,295.28527 L -1675.9411,283.41027 L -1676.4724,265.97277 L -1676.7224,250.31657 L -1677.2224,240.47277 L -1677.7224,234.41027 L -1677.2224,228.59777 L -1677.4724,223.81652 L -1676.7224,222.03527 L -1677.7224,218.50402 L -1677.9724,213.94152 L -1679.2224,210.91027 L -1678.2224,205.62902 L -1678.7224,197.28527 L -1677.4724,193.75402 L -1679.5036,190.97277 L -1678.2224,183.91027 L -1678.4724,178.84777 L -1677.2224,176.31652 L -1676.7224,174.31652 L -1677.4724,172.53527 L -1679.2224,171.53527 L -1680.2536,170.00402 L -1681.0036,167.75402 L -1680.5036,164.72277 L -1678.9724,163.44152 L -1676.1911,163.19152 L -1675.6911,161.44152 L -1676.7224,156.87902 L -1675.4411,151.06652 L -1673.4411,141.22277 L -1670.9099,135.16027 L -1670.6599,129.84777 L -1669.6286,123.78527 L -1667.3786,118.75402 L -1666.5974,114.19152 L -1665.5974,107.87902 L -1665.8474,105.34777 L -1667.1286,104.59777 L -1665.3474,103.59777 L -1664.0974,101.56652 L -1663.8474,99.035267 L -1664.8474,98.535267 L -1665.5974,98.035267 L -1664.5974,96.535267 L -1663.3161,95.004017 L -1663.5661,93.754017 L -1664.8474,92.472767 L -1666.3474,91.472767 L -1667.6286,90.722767 L -1667.6286,89.691517 L -1666.0974,89.441517 L -1664.5974,88.941517 L -1664.8474,86.410267 L -1666.3474,86.410267 L -1666.5974,85.160267 L -1665.0974,82.879017 L -1664.5974,81.129017 L -1665.8474,80.347767 L -1665.8474,76.316517 L -1663.8474,76.066517 L -1663.3161,74.035267 L -1664.0974,72.285267 L -1664.3474,67.222767 L -1663.5661,62.441517 L -1662.3161,58.129017 L -1661.5661,54.847767 L -1660.8161,49.566517 L -1658.0349,47.285267 L -1657.0036,46.785267 L -1657.7849,44.754017 L -1657.7849,42.722767 L -1656.0036,40.222767 L -1653.9724,36.160267 L -1651.1911,32.879017 L -1650.9411,29.847767 L -1650.9411,27.847767 L -1650.1911,25.816517 L -1650.1911,24.035267 L -1651.1911,23.285267 L -1651.9724,24.035267 L -1652.9724,23.535267 L -1652.2224,16.972767 L -1650.9411,11.410267 L -1649.1911,10.160267 L -1649.1911,6.6290166 L -1647.6599,-0.18348336 L -1646.4099,-5.9959834 L -1645.1286,-11.058483 L -1643.3786,-12.558483 L -1639.8474,-12.839733 L -1640.3474,-15.089733 L -1642.6286,-15.339733 L -1642.3786,-18.870983 L -1640.8474,-21.152233 L -1639.5974,-21.402233 L -1636.8161,-20.402233 L -1636.0661,-21.152233 L -1638.5661,-23.433483 L -1639.8474,-24.183483 L -1637.5661,-32.027233 L -1636.3161,-36.808483 L -1633.2849,-44.402233 L -1631.7536,-50.964733 L -1630.5036,-55.495983 L -1627.9724,-62.058483 L -1625.4411,-66.370983 L -1624.6911,-67.495983 z " />
<text
       xml:space="preserve"
       style="font-size:48px;font-style:normal;font-weight:normal;fill:#000000;fill-opacity:1;stroke:none;stroke-width:1px;stroke-linecap:butt;stroke-linejoin:round;stroke-opacity:1;font-family:Bitstream Vera Sans"
       x="-1762.9927"
       y="166.39766"
       id="text4477"><tspan
         sodipodi:role="line"
         id="tspan4479"
         x="-1762.9927"
         y="166.39766">22</tspan></text>
    <path class="barrio"
        
       d="M -1607.5974,-81.839733 L -1605.0036,-87.058483 L -1616.0974,-94.402233 L -1629.4724,-103.99598 L -1640.5974,-110.30848 L -1647.1599,-112.83973 L -1652.7224,-113.58973 L -1655.7536,-114.58973 L -1660.2849,-114.58973 L -1662.3161,-113.33973 L -1673.9411,-113.33973 L -1674.2849,-113.08973 L -1674.1911,-113.08973 L -1672.4175,-113.28675 L -1672.885,-110.77723 L -1671.9099,-110.80848 L -1670.6599,-109.80848 L -1666.3474,-83.027233 L -1662.0661,-77.964733 L -1658.0349,-74.433483 L -1657.2536,-71.933483 L -1652.7224,-69.652233 L -1647.1599,-67.870983 L -1638.5661,-67.370983 L -1634.0349,-68.370983 L -1632.7849,-69.402233 L -1627.9724,-69.652233 L -1624.6911,-67.495983 L -1623.4411,-69.402233 L -1619.1286,-76.464733 L -1614.3474,-81.527233 L -1610.5349,-84.558483 L -1607.5974,-81.839733 z "
       id="path8060"
       sodipodi:nodetypes="ccccccccccccccccccccccccccccccccc" />
    <path class="barrio"
        
       d="M -1567.3474,-102.68348 L -1570.0661,-104.24598 L -1578.6286,-107.99598 L -1588.2849,-114.05848 L -1591.8474,-117.65223 L -1595.7849,-124.77723 L -1589.3474,-132.27723 L -1574.0036,-146.55848 L -1565.4411,-154.43348 L -1579.0036,-171.93348 L -1570.4411,-171.93348 L -1570.4411,-180.87098 L -1585.0661,-180.49598 L -1585.4411,-187.99598 L -1571.5036,-188.71473 L -1571.8474,-199.77723 L -1588.2849,-198.71473 L -1595.4411,-196.55848 L -1659.0036,-169.77723 L -1664.7224,-166.21473 L -1671.5036,-165.49598 L -1672.2224,-164.05848 L -1675.0661,-161.55848 L -1680.4411,-157.99598 L -1684.3474,-157.27723 L -1692.5661,-155.87098 L -1711.1286,-151.21473 L -1713.6286,-148.71473 L -1713.6599,-148.46473 L -1713.5974,-148.43348 L -1709.5349,-144.40223 L -1703.7224,-139.83973 L -1699.4411,-134.30848 L -1696.4099,-128.99598 L -1694.3786,-123.93348 L -1689.8474,-120.90223 L -1685.0349,-117.62098 L -1680.6113,-115.23123 L -1676.1789,-113.216 L -1673.9411,-113.33973 L -1662.3161,-113.33973 L -1660.2849,-114.58973 L -1655.7536,-114.58973 L -1652.7224,-113.58973 L -1647.1599,-112.83973 L -1640.5974,-110.30848 L -1629.4724,-103.99598 L -1616.0974,-94.402233 L -1605.0036,-87.058483 L -1607.5974,-81.839733 L -1603.7224,-78.245983 L -1598.9411,-82.777233 L -1590.0974,-73.683483 L -1588.5661,-75.214733 L -1597.1599,-84.558483 L -1593.6286,-88.339733 L -1598.4099,-92.870983 L -1588.8161,-102.99598 L -1579.7224,-94.152233 L -1579.4724,-85.808483 L -1577.7224,-85.808483 L -1577.7224,-72.183483 L -1582.7536,-66.120983 L -1581.0036,-64.089733 L -1574.9411,-71.652233 L -1574.9411,-95.402233 L -1567.3474,-102.68348 z "
       id="path8078"
       sodipodi:nodetypes="ccccccccccccccccccccccccccccccccccccccccccccccccccccccccccccccccccc" />
    <path class="barrio"
        
       d="M -1594.9724,-196.71473 L -1608.0349,-208.52723 L -1614.0974,-211.05848 L -1633.0349,-212.33973 L -1653.4724,-214.58973 L -1667.6286,-215.62098 L -1677.4724,-214.87098 L -1689.0974,-213.58973 L -1679.5036,-158.77723 L -1679.4724,-158.65223 L -1675.0661,-161.55848 L -1672.2224,-164.05848 L -1671.5036,-165.49598 L -1664.7224,-166.21473 L -1659.0036,-169.77723 L -1595.4411,-196.55848 L -1594.9724,-196.71473 z "
       id="path8083" />
    <path class="barrio"
        
       d="M -1623.6599,-211.71473 L -1623.5661,-223.43348 L -1611.8161,-222.68348 L -1610.9099,-239.08973 L -1614.5974,-240.49598 L -1619.1286,-242.37098 L -1623.9411,-244.02723 L -1628.3474,-246.30848 L -1631.7536,-248.43348 L -1634.7849,-250.46473 L -1637.4449,-252.48837 L -1640.9099,-213.21473 L -1633.0349,-212.33973 L -1623.6599,-211.71473 z "
       id="path8095"
       sodipodi:nodetypes="cccccccccccccc" />
    <path class="barrio"
        
       d="M -1750.2849,-550.49598 L -1761.8161,-555.27723 L -1767.8786,-540.87098 L -1770.9099,-532.05848 L -1777.2224,-515.37098 L -1780.0036,-502.74598 L -1783.0349,-493.40223 L -1788.5974,-473.71473 L -1790.0974,-464.12098 L -1791.0974,-453.24598 L -1791.0974,-441.62098 L -1791.3786,-432.80848 L -1791.3786,-421.93348 L -1790.0974,-412.58973 L -1790.0974,-405.77723 L -1790.3474,-395.68348 L -1791.3786,-384.80848 L -1793.1286,-364.87098 L -1793.6286,-358.30848 L -1793.1286,-344.90223 L -1794.1286,-337.58973 L -1794.9099,-324.71473 L -1794.9099,-312.08973 L -1796.1599,-296.43348 L -1795.9099,-291.37098 L -1794.6599,-288.08973 L -1797.4099,-284.80848 L -1798.4411,-280.77723 L -1797.9411,-277.49598 L -1792.6286,-276.46473 L -1789.0974,-273.96473 L -1786.8161,-270.93348 L -1787.8161,-267.62098 L -1791.8786,-262.58973 L -1796.6599,-257.02723 L -1798.9411,-251.71473 L -1801.4724,-244.15223 L -1801.4724,-241.12098 L -1800.9724,-239.33973 L -1796.6599,-237.33973 L -1789.8474,-232.27723 L -1784.5349,-226.71473 L -1780.0036,-221.43348 L -1779.0036,-217.12098 L -1779.7536,-211.55848 L -1781.7536,-205.24598 L -1782.5349,-197.93348 L -1782.5349,-191.37098 L -1777.4724,-188.08973 L -1774.1911,-186.80848 L -1771.6599,-185.05848 L -1769.1286,-178.99598 L -1766.0974,-170.90223 L -1762.5661,-164.33973 L -1758.2849,-161.30848 L -1750.9724,-160.30848 L -1746.4099,-159.55848 L -1737.8161,-155.49598 L -1730.0036,-153.74598 L -1721.1599,-151.21473 L -1716.0974,-149.96473 L -1713.6599,-148.46473 L -1713.6286,-148.71473 L -1711.1286,-151.21473 L -1692.5661,-155.87098 L -1684.3474,-157.27723 L -1680.4411,-157.99598 L -1679.4724,-158.65223 L -1679.5036,-158.77723 L -1689.0974,-213.58973 L -1677.4724,-214.87098 L -1667.6286,-215.62098 L -1653.4724,-214.58973 L -1640.9099,-213.21473 L -1637.4411,-252.37098 L -1637.5661,-252.65223 L -1640.0661,-255.15223 L -1641.8474,-255.15223 L -1648.2849,-254.43348 L -1653.6286,-254.43348 L -1661.8474,-255.87098 L -1666.8474,-256.55848 L -1675.7849,-258.71473 L -1683.6286,-260.87098 L -1693.2849,-263.37098 L -1700.0661,-265.87098 L -1705.4411,-268.37098 L -1710.7849,-271.21473 L -1718.6286,-276.21473 L -1727.2224,-282.99598 L -1734.7224,-290.49598 L -1745.4411,-304.43348 L -1752.9411,-317.27723 L -1759.0036,-329.43348 L -1761.8474,-339.43348 L -1762.9411,-347.65223 L -1761.8474,-445.49598 L -1759.0036,-495.49598 L -1756.5036,-535.15223 L -1750.2849,-550.49598 z "
       id="path8100" />
    <path class="barrio"
        
       d="M -1530.1286,-203.43348 L -1571.8474,-199.77723 L -1571.5036,-188.71473 L -1585.4411,-187.99598 L -1585.0661,-180.49598 L -1570.4411,-180.87098 L -1570.4411,-171.93348 L -1579.0036,-171.93348 L -1565.5036,-154.49598 L -1565.0974,-154.49598 L -1561.5661,-156.77723 L -1553.9724,-158.77723 L -1539.8474,-162.08973 L -1528.9724,-164.58973 L -1521.6599,-165.12098 L -1529.7224,-197.93348 L -1530.1286,-203.43348 z "
       id="path8118" />
    <path class="barrio"
        
       d="M -1585.4099,-228.71473 L -1592.5661,-224.05848 L -1579.8786,-199.24598 L -1571.8474,-199.77723 L -1530.1286,-203.43348 L -1530.7536,-211.83973 L -1531.7536,-213.58973 L -1531.7536,-217.87098 L -1530.7536,-219.40223 L -1530.7536,-222.68348 L -1544.3786,-223.43348 L -1549.1911,-224.46473 L -1554.2224,-225.96473 L -1557.7536,-225.96473 L -1563.5661,-224.96473 L -1572.1599,-225.71473 L -1581.7536,-227.21473 L -1585.4099,-228.71473 z "
       id="path8113" />
    <path class="barrio"
        
       d="M -1579.8786,-199.24598 L -1592.5661,-224.05848 L -1585.4099,-228.71473 L -1610.7849,-239.08973 L -1610.9099,-239.02723 L -1611.8161,-222.68348 L -1623.5661,-223.43348 L -1623.6599,-211.71473 L -1614.0974,-211.05848 L -1608.0349,-208.52723 L -1594.9724,-196.71473 L -1588.2849,-198.71473 L -1579.8786,-199.24598 z "
       id="path8108" />
    <path class="barrio"
        
       d="M -1395.4724,-247.43348 L -1398.6286,-247.46473 L -1398.6286,-250.68348 L -1401.1286,-250.49598 L -1434.8786,-219.62098 L -1437.3786,-214.24598 L -1437.3786,-210.15223 L -1441.3161,-209.24598 L -1443.4724,-214.62098 L -1478.2849,-195.68348 L -1489.8786,-206.21473 L -1493.2849,-203.52723 L -1520.7849,-248.71473 L -1527.3786,-243.90223 L -1530.5974,-222.65223 L -1530.7536,-222.58973 L -1530.7536,-219.40223 L -1531.7536,-217.87098 L -1531.7536,-213.58973 L -1530.7536,-211.83973 L -1529.7224,-197.93348 L -1521.6599,-165.12098 L -1528.9724,-164.58973 L -1539.8474,-162.08973 L -1553.9724,-158.77723 L -1561.5661,-156.77723 L -1565.0974,-154.49598 L -1565.5036,-154.49598 L -1565.4411,-154.43348 L -1574.0036,-146.55848 L -1589.3474,-132.27723 L -1595.7849,-124.77723 L -1591.8474,-117.65223 L -1588.2849,-114.05848 L -1578.6286,-107.99598 L -1570.0661,-104.24598 L -1567.3474,-102.68348 L -1556.0036,-113.58973 L -1529.2224,-87.058483 L -1523.9411,-92.870983 L -1521.4099,-90.089733 L -1519.8786,-91.870983 L -1520.3786,-93.652233 L -1513.0661,-101.71473 L -1511.6911,-102.12098 L -1534.5036,-124.55848 L -1533.2849,-125.96473 L -1533.2849,-128.99598 L -1512.5661,-128.99598 L -1502.2224,-117.87098 L -1501.1911,-118.90223 L -1511.5661,-130.24598 L -1508.0036,-130.74598 L -1507.2536,-128.49598 L -1505.7536,-128.74598 L -1505.7536,-132.27723 L -1501.6911,-132.27723 L -1500.6911,-131.27723 L -1504.9724,-126.71473 L -1496.1599,-116.62098 L -1477.4724,-135.80848 L -1477.1911,-138.08973 L -1482.7536,-142.87098 L -1485.5349,-142.87098 L -1495.6286,-133.52723 L -1501.9411,-139.58973 L -1476.4411,-151.71473 L -1469.3786,-144.65223 L -1466.3474,-146.93348 L -1469.8786,-154.49598 L -1453.4724,-161.80848 L -1456.7536,-167.87098 L -1472.1599,-160.05848 L -1480.7536,-169.90223 L -1479.7224,-171.93348 L -1481.2536,-173.43348 L -1482.7536,-171.93348 L -1484.0349,-172.43348 L -1484.0349,-173.93348 L -1478.9724,-180.24598 L -1476.1911,-185.80848 L -1472.6599,-192.12098 L -1470.1286,-192.12098 L -1469.6286,-194.65223 L -1465.0974,-198.18348 L -1457.7536,-201.96473 L -1444.8786,-209.05848 L -1443.3786,-207.02723 L -1441.0974,-207.27723 L -1437.8161,-197.68348 L -1440.8474,-197.18348 L -1437.0661,-186.55848 L -1438.0661,-185.30848 L -1437.0661,-183.80848 L -1449.4411,-171.93348 L -1446.1286,-167.37098 L -1443.1286,-167.37098 L -1433.0036,-179.24598 L -1431.7536,-179.24598 L -1428.4724,-159.80848 L -1429.9724,-158.02723 L -1428.7224,-157.27723 L -1476.6911,-107.77723 L -1475.9411,-104.49598 L -1496.9099,-82.527233 L -1495.3786,-80.745983 L -1426.6911,-151.21473 L -1424.1599,-151.71473 L -1421.4099,-155.24598 L -1429.4724,-192.87098 L -1423.1599,-193.15223 L -1422.1599,-195.40223 L -1425.4411,-195.65223 L -1427.9724,-209.55848 L -1428.9724,-209.55848 L -1429.7224,-212.58973 L -1424.4411,-218.40223 L -1418.3786,-225.21473 L -1412.5661,-231.77723 L -1404.7224,-238.83973 L -1399.6911,-241.12098 L -1395.8786,-240.62098 L -1393.6286,-238.58973 L -1396.1286,-236.05848 L -1394.6286,-234.30848 L -1386.5349,-243.90223 L -1387.8161,-244.90223 L -1391.8474,-240.62098 L -1394.6286,-243.40223 L -1395.4947,-245.67587 L -1395.4724,-247.43348 z "
       id="path8123"
       sodipodi:nodetypes="ccccccccccccccccccccccccccccccccccccccccccccccccccccccccccccccccccccccccccccccccccccccccccccccccccccccccccccccccccccccccccccccccccc" />
    <path class="barrio"
        
       d="M -1521.1599,-248.43348 L -1521.1286,-251.55848 L -1514.3474,-255.15223 L -1514.3474,-259.43348 L -1512.5661,-260.49598 L -1509.0036,-260.15223 L -1506.1286,-262.27723 L -1504.3474,-264.77723 L -1504.0036,-268.37098 L -1503.2849,-273.71473 L -1500.8449,-277.74546 L -1499.0036,-283.71473 L -1499.0036,-296.21473 L -1504.7224,-306.93348 L -1505.7849,-311.55848 L -1517.2224,-312.27723 L -1525.0661,-293.71473 L -1536.8474,-280.49598 L -1531.1286,-266.55848 L -1542.2224,-259.05848 L -1545.7849,-264.05848 L -1565.4411,-236.93348 L -1572.5661,-235.15223 L -1581.1286,-231.93348 L -1585.4411,-229.05848 L -1585.1599,-228.62098 L -1581.7536,-227.21473 L -1572.1599,-225.71473 L -1563.5661,-224.96473 L -1557.7536,-225.96473 L -1554.2224,-225.96473 L -1549.1911,-224.46473 L -1544.3786,-223.43348 L -1530.7536,-222.68348 L -1530.7536,-222.58973 L -1530.5974,-222.65223 L -1527.3786,-243.90223 L -1521.1599,-248.43348 z "
       id="path2180"
       sodipodi:nodetypes="cccccccccccccccccccccccccccccccccccccc" />
    <path class="barrio"
        
       d="M -1456.5349,-207.49598 L -1467.2224,-230.05848 L -1462.9411,-232.12098 L -1462.9411,-233.37098 L -1464.8161,-234.33973 L -1464.8161,-235.58973 L -1463.8161,-236.21473 L -1462.7536,-236.55848 L -1462.7536,-238.18348 L -1463.8161,-238.52723 L -1463.7224,-241.49598 L -1464.6286,-242.37098 L -1464.6286,-244.43348 L -1465.1599,-245.58973 L -1466.6911,-245.58973 L -1467.1286,-244.43348 L -1470.4411,-244.43348 L -1506.8786,-225.87098 L -1493.2849,-203.52723 L -1489.8786,-206.21473 L -1478.2849,-195.68348 L -1456.5349,-207.49598 z "
       id="path2249" />
    <path class="barrio"
        
       d="M -1417.1599,-235.83973 L -1421.0661,-239.77723 L -1423.9099,-236.40223 L -1428.3786,-236.40223 L -1429.6286,-237.55848 L -1433.5661,-237.46473 L -1434.4411,-236.49598 L -1438.7224,-236.49598 L -1439.6286,-235.68348 L -1441.8474,-235.68348 L -1449.0036,-240.24598 L -1449.0036,-242.18348 L -1447.8474,-242.99598 L -1447.8474,-247.46473 L -1448.8161,-248.52723 L -1450.2536,-248.43348 L -1452.8474,-245.58973 L -1460.7849,-243.27723 L -1463.5661,-241.02723 L -1463.7536,-240.93348 L -1463.8161,-238.52723 L -1462.7536,-238.18348 L -1462.7536,-236.55848 L -1463.8161,-236.21473 L -1464.8161,-235.58973 L -1464.8161,-234.33973 L -1462.9411,-233.37098 L -1462.9411,-232.12098 L -1467.2224,-230.05848 L -1456.5349,-207.49598 L -1443.4724,-214.62098 L -1441.3161,-209.24598 L -1437.3786,-210.15223 L -1437.3786,-214.24598 L -1434.8786,-219.62098 L -1417.1599,-235.83973 z "
       id="path2282" />
    <path class="barrio"
        
       d="M -1398.6286,-250.37098 L -1396.3161,-256.21473 L -1396.6911,-275.15223 L -1400.2536,-281.93348 L -1408.0974,-277.99598 L -1412.9411,-277.80848 L -1412.5661,-275.87098 L -1403.2849,-269.43348 L -1403.0974,-267.46473 L -1405.9724,-262.46473 L -1408.6286,-262.27723 L -1410.0661,-261.21473 L -1410.5974,-257.80848 L -1409.0036,-256.40223 L -1408.2849,-254.96473 L -1408.6286,-252.80848 L -1417.7536,-242.12098 L -1421.1286,-240.15223 L -1421.2224,-239.58973 L -1421.0661,-239.77723 L -1417.1599,-235.83973 L -1401.1286,-250.49598 L -1398.6286,-250.68348 L -1398.6286,-250.37098 z "
       id="path2292" />
    <path class="barrio"
        
       d="M -1412.9411,-277.74598 L -1413.0974,-277.80848 L -1415.0661,-278.52723 L -1419.3474,-278.52723 L -1422.0349,-279.43348 L -1437.9411,-279.62098 L -1438.8161,-278.37098 L -1441.8474,-278.37098 L -1444.5349,-276.40223 L -1454.7224,-276.21473 L -1456.5036,-277.46473 L -1462.7536,-277.65223 L -1462.5661,-279.24598 L -1460.9724,-281.40223 L -1460.7849,-287.65223 L -1475.0661,-287.65223 L -1474.8786,-280.49598 L -1477.0349,-278.71473 L -1473.6286,-274.24598 L -1473.6286,-268.37098 L -1470.7849,-268.37098 L -1470.9724,-244.62098 L -1471.0036,-244.15223 L -1470.4411,-244.43348 L -1467.1286,-244.43348 L -1466.6911,-245.58973 L -1465.1599,-245.58973 L -1464.6286,-244.43348 L -1464.6286,-242.37098 L -1463.7224,-241.49598 L -1463.7536,-240.93348 L -1463.5661,-241.02723 L -1460.7849,-243.27723 L -1452.8474,-245.58973 L -1450.2536,-248.43348 L -1448.8161,-248.52723 L -1447.8474,-247.46473 L -1447.8474,-242.99598 L -1449.0036,-242.18348 L -1449.0036,-240.24598 L -1441.8474,-235.68348 L -1439.6286,-235.68348 L -1438.7224,-236.49598 L -1434.4411,-236.49598 L -1433.5661,-237.46473 L -1429.6286,-237.55848 L -1428.3786,-236.40223 L -1423.9099,-236.40223 L -1421.2224,-239.58973 L -1421.1286,-240.15223 L -1417.7536,-242.12098 L -1408.6286,-252.80848 L -1408.2849,-254.96473 L -1409.0036,-256.40223 L -1410.5974,-257.80848 L -1410.0661,-261.21473 L -1408.6286,-262.27723 L -1405.9724,-262.46473 L -1403.0974,-267.46473 L -1403.2849,-269.43348 L -1412.5661,-275.87098 L -1412.9411,-277.74598 z "
       id="path2299" />
    <path class="barrio"
        
       d="M -1477.0349,-278.71473 L -1485.7849,-273.68348 L -1487.8161,-270.93348 L -1488.5661,-268.15223 L -1500.9411,-268.15223 L -1503.4724,-272.18348 L -1503.5036,-272.15223 L -1504.0036,-268.37098 L -1504.3474,-264.77723 L -1506.1286,-262.27723 L -1509.0036,-260.15223 L -1512.5661,-260.49598 L -1514.3474,-259.43348 L -1514.3474,-255.15223 L -1520.7849,-251.21473 L -1521.1599,-248.43348 L -1520.7849,-248.71473 L -1506.8786,-225.87098 L -1471.0036,-244.15223 L -1470.9724,-244.62098 L -1470.7849,-268.37098 L -1473.6286,-268.37098 L -1473.6286,-274.24598 L -1477.0349,-278.71473 z "
       id="path2186" />
    <path class="barrio"
        
       d="M -1413.3474,-277.90223 L -1413.3161,-277.99598 L -1414.0661,-284.30848 L -1415.3474,-287.58973 L -1420.1286,-282.27723 L -1447.4099,-311.33973 L -1456.0036,-317.12098 L -1462.0661,-320.15223 L -1466.5974,-320.68348 L -1467.8474,-322.68348 L -1470.3786,-323.43348 L -1471.4099,-322.68348 L -1473.4099,-317.12098 L -1475.9411,-311.05848 L -1474.9411,-287.83973 L -1474.8474,-287.65223 L -1460.7849,-287.65223 L -1460.9724,-281.40223 L -1462.5661,-279.24598 L -1462.7536,-277.65223 L -1456.5036,-277.46473 L -1454.7224,-276.21473 L -1444.5349,-276.40223 L -1441.8474,-278.37098 L -1438.8161,-278.37098 L -1437.9411,-279.62098 L -1422.0349,-279.43348 L -1419.3474,-278.52723 L -1415.0661,-278.52723 L -1413.3474,-277.90223 z "
       id="path2191" />
    <path class="barrio"
        
       d="M -1400.4411,-281.83973 L -1400.4411,-282.02723 L -1402.7224,-285.80848 L -1402.9724,-292.12098 L -1401.9411,-293.40223 L -1399.4099,-298.18348 L -1397.1599,-301.71473 L -1391.3474,-307.52723 L -1386.2849,-312.33973 L -1392.8474,-319.90223 L -1396.3786,-316.12098 L -1402.9724,-322.93348 L -1400.1911,-325.71473 L -1397.6599,-325.96473 L -1389.8161,-330.77723 L -1389.8161,-336.83973 L -1419.3786,-351.21473 L -1436.5349,-315.87098 L -1428.4724,-312.58973 L -1440.4099,-303.87098 L -1420.1286,-282.27723 L -1415.3474,-287.58973 L -1414.0661,-284.30848 L -1413.3161,-277.99598 L -1413.3474,-277.90223 L -1413.0974,-277.80848 L -1412.9411,-277.74598 L -1412.9411,-277.80848 L -1408.0974,-277.99598 L -1400.4411,-281.83973 z "
       id="path2196" />
    <path class="barrio"
        
       d="M -1418.7849,-350.93348 L -1419.3786,-351.46473 L -1433.7849,-357.52723 L -1451.4411,-368.40223 L -1461.5349,-368.65223 L -1461.5349,-362.83973 L -1468.8786,-362.83973 L -1467.0974,-354.77723 L -1466.3474,-341.87098 L -1466.0974,-331.77723 L -1470.1286,-323.43348 L -1470.1286,-323.37098 L -1467.8474,-322.68348 L -1466.5974,-320.68348 L -1462.0661,-320.15223 L -1456.0036,-317.12098 L -1447.4099,-311.33973 L -1440.4099,-303.87098 L -1428.4724,-312.58973 L -1436.5349,-315.87098 L -1419.3786,-351.21473 L -1418.7849,-350.93348 z "
       id="path2201" />
    <path class="barrio"
        
       d="M -1466.1599,-334.30848 L -1466.3161,-334.43348 L -1485.2536,-333.37098 L -1488.2849,-332.65223 L -1495.9724,-332.65223 L -1506.5036,-335.49598 L -1512.2224,-335.30848 L -1511.6911,-334.62098 L -1520.7849,-329.05848 L -1514.7224,-319.96473 L -1514.7224,-315.68348 L -1515.5974,-312.46473 L -1515.6286,-312.18348 L -1505.7849,-311.55848 L -1504.7224,-306.93348 L -1499.0036,-296.21473 L -1499.0036,-283.71473 L -1500.9724,-277.30848 L -1503.2849,-273.71473 L -1503.5036,-272.15223 L -1503.4724,-272.18348 L -1500.9411,-268.15223 L -1488.5661,-268.15223 L -1487.8161,-270.93348 L -1485.7849,-273.68348 L -1477.0349,-278.71473 L -1474.8786,-280.49598 L -1475.0661,-287.65223 L -1474.8474,-287.65223 L -1474.9411,-287.83973 L -1475.9411,-311.05848 L -1473.4099,-317.12098 L -1471.4099,-322.68348 L -1470.3786,-323.43348 L -1470.1286,-323.37098 L -1470.1286,-323.43348 L -1466.0974,-331.77723 L -1466.1599,-334.30848 z "
       id="path2206" />
    <path class="barrio"
        
       d="M -1512.0661,-335.30848 L -1512.5661,-335.80848 L -1534.2849,-369.65223 L -1529.2274,-372.30467 L -1538.8161,-388.58973 L -1538.8161,-392.15223 L -1544.8786,-390.87098 L -1545.9099,-394.65223 L -1551.4411,-392.90223 L -1568.1286,-381.02723 L -1565.8474,-378.49598 L -1565.5923,-374.21473 L -1533.0036,-321.43348 L -1520.9099,-328.99598 L -1520.6911,-328.93348 L -1520.7849,-329.05848 L -1511.6911,-334.62098 L -1512.2224,-335.30848 L -1512.0661,-335.30848 z "
       id="path2211"
       sodipodi:nodetypes="ccccccccccccccccccc" />
    <path class="barrio"
        
       d="M -1468.8161,-362.52723 L -1468.8786,-362.58973 L -1477.9724,-394.65223 L -1516.5974,-372.18348 L -1517.3474,-369.65223 L -1529.8161,-362.68348 L -1512.5661,-335.80848 L -1512.0661,-335.30848 L -1506.5036,-335.49598 L -1495.9724,-332.65223 L -1488.2849,-332.65223 L -1485.2536,-333.37098 L -1466.3161,-334.43348 L -1466.1599,-334.30848 L -1466.3474,-341.87098 L -1467.0974,-354.77723 L -1468.8161,-362.52723 z "
       id="path2216" />
    <path class="barrio"
        
       d="M -1441.9099,-362.52723 L -1448.9099,-404.52723 L -1480.2224,-401.21473 L -1477.7224,-394.15223 L -1477.7849,-393.99598 L -1468.8786,-362.58973 L -1468.8161,-362.52723 L -1468.8786,-362.83973 L -1461.5349,-362.83973 L -1461.5349,-368.65223 L -1451.4411,-368.40223 L -1441.9099,-362.52723 z "
       id="path2222" />
    <path class="barrio"
        
       d="M -1465.5974,-402.74598 L -1466.8474,-413.37098 L -1460.5974,-417.80848 L -1464.5349,-418.90223 L -1465.7849,-431.74598 L -1470.5974,-431.74598 L -1473.2849,-430.15223 L -1478.4724,-430.15223 L -1482.9411,-431.40223 L -1487.0349,-431.40223 L -1480.2536,-401.21473 L -1480.2224,-401.21473 L -1465.5974,-402.74598 z "
       id="path2227" />
    <path class="barrio"
        
       d="M -1448.9099,-404.52723 L -1453.5974,-431.77723 L -1454.3474,-433.93348 L -1457.2536,-436.21473 L -1462.1911,-437.83973 L -1467.0974,-438.99598 L -1465.9724,-432.02723 L -1466.0974,-431.74598 L -1465.7849,-431.74598 L -1464.5349,-418.90223 L -1460.5974,-417.80848 L -1466.8474,-413.37098 L -1465.5974,-402.74598 L -1448.9099,-404.52723 z "
       id="path2232" />
    <path class="barrio"
        
       d="M -1493.8161,-426.74598 L -1494.5349,-422.80848 L -1497.0349,-419.62098 L -1500.2536,-419.62098 L -1503.6286,-439.05848 L -1509.3474,-442.12098 L -1519.7224,-442.12098 L -1522.9411,-438.37098 L -1522.7536,-435.68348 L -1521.6911,-434.62098 L -1521.6911,-430.49598 L -1522.9411,-430.49598 L -1522.9411,-425.49598 L -1525.7849,-425.49598 L -1525.7849,-423.18348 L -1520.5974,-401.40223 L -1521.6911,-397.99598 L -1524.3474,-394.62098 L -1527.5661,-392.65223 L -1530.5974,-392.65223 L -1530.9724,-394.24598 L -1538.8161,-392.27723 L -1538.9724,-392.12098 L -1538.8161,-392.15223 L -1538.8161,-388.58973 L -1529.2224,-372.30848 L -1534.2849,-369.65223 L -1529.8161,-362.68348 L -1517.3474,-369.65223 L -1516.5974,-372.18348 L -1477.9724,-394.65223 L -1477.7849,-393.99598 L -1477.7224,-394.15223 L -1480.2224,-401.18348 L -1480.2224,-401.21473 L -1480.2536,-401.21473 L -1486.5717,-429.39049 L -1493.8161,-426.74598 z "
       id="path2244"
       sodipodi:nodetypes="cccccccccccccccccccccccccccccccccccccc" />
    <path class="barrio"
        
       d="M -1567.6599,-380.52723 L -1567.8786,-380.52723 L -1570.6599,-380.52723 L -1591.8474,-363.33973 L -1595.6599,-362.08973 L -1604.7224,-354.24598 L -1602.7224,-351.74598 L -1569.3786,-330.77723 L -1567.0974,-335.30848 L -1567.0974,-338.33973 L -1562.0661,-338.33973 L -1560.2849,-336.05848 L -1553.7224,-333.55848 L -1551.9724,-337.58973 L -1545.8786,-342.21473 L -1565.8474,-374.46473 L -1565.8474,-378.49598 L -1567.6599,-380.52723 z "
       id="path2253" />
    <path class="barrio"
        
       d="M -1470.7849,-451.96473 L -1470.7849,-454.24598 L -1470.2536,-454.96473 L -1470.2536,-456.93348 L -1470.5974,-457.80848 L -1474.0036,-466.74598 L -1475.7849,-466.74598 L -1476.8474,-465.68348 L -1479.1911,-465.68348 L -1479.1911,-466.55848 L -1477.9411,-468.71473 L -1478.0974,-473.37098 L -1479.0036,-476.55848 L -1481.8474,-476.55848 L -1494.5349,-474.24598 L -1494.5974,-474.21473 L -1494.5349,-474.05848 L -1492.7536,-468.18348 L -1491.3161,-457.27723 L -1490.0661,-448.18348 L -1487.5661,-447.46473 L -1484.3474,-448.37098 L -1479.7224,-452.27723 L -1471.8474,-452.46473 L -1470.7849,-451.96473 z "
       id="path2276" />
    <path class="barrio"
        
       d="M -1552.5349,-416.37098 L -1567.5661,-412.12098 L -1569.0036,-413.90223 L -1578.6286,-406.74598 L -1570.5974,-398.18348 L -1570.7849,-395.30848 L -1576.6911,-391.21473 L -1581.1286,-386.21473 L -1612.5661,-362.99598 L -1604.8786,-354.43348 L -1604.5661,-354.37098 L -1595.6599,-362.08973 L -1591.8474,-363.33973 L -1570.6599,-380.52723 L -1567.8786,-380.52723 L -1567.6599,-380.52723 L -1568.1286,-381.02723 L -1551.4411,-392.90223 L -1546.0349,-394.62098 L -1545.9724,-394.77723 L -1552.5349,-416.37098 z "
       id="path2281" />
    <path class="barrio"
        
       d="M -1554.4724,-422.74598 L -1554.5349,-422.80848 L -1556.3161,-430.87098 L -1616.3161,-407.27723 L -1624.5349,-395.15223 L -1612.9411,-363.18348 L -1612.4411,-363.08973 L -1581.1286,-386.21473 L -1576.6911,-391.21473 L -1570.7849,-395.30848 L -1570.5974,-398.18348 L -1578.6286,-406.74598 L -1569.0036,-413.90223 L -1567.5661,-412.12098 L -1552.5349,-416.37098 L -1554.4724,-422.74598 z "
       id="path2286" />
    <path class="barrio"
        
       d="M -1389.9099,-330.71473 L -1389.7224,-330.68348 L -1379.1911,-341.02723 L -1375.4411,-346.93348 L -1370.5974,-354.05848 L -1365.2536,-363.71473 L -1360.5974,-369.96473 L -1357.9411,-372.80848 L -1362.5661,-379.77723 L -1366.1286,-386.93348 L -1369.5349,-395.87098 L -1371.8474,-403.18348 L -1373.2849,-410.49598 L -1373.8161,-416.55848 L -1386.1286,-417.80848 L -1396.5036,-420.15223 L -1428.4724,-422.65223 L -1433.4724,-424.43348 L -1439.3474,-424.24598 L -1452.1286,-423.18348 L -1448.9099,-404.52723 L -1441.9099,-362.52723 L -1433.7849,-357.52723 L -1419.3786,-351.46473 L -1418.7849,-350.93348 L -1389.8161,-336.83973 L -1389.8161,-330.77723 L -1389.9099,-330.71473 z "
       id="path2291" />
    <path class="barrio"
        
       d="M -997.37861,-390.99598 L -997.75361,-391.40223 L -1003.8161,-391.21473 L -1004.1911,-388.90223 L -1005.0661,-386.40223 L -1007.3786,-384.24598 L -1009.5349,-382.46473 L -1012.5661,-381.40223 L -1023.4724,-381.40223 L -1033.2849,-382.12098 L -1043.4724,-384.62098 L -1052.9411,-386.93348 L -1058.6286,-388.18348 L -1061.6911,-387.99598 L -1067.3786,-386.93348 L -1077.0349,-384.96473 L -1092.9411,-380.68348 L -1105.5974,-377.99598 L -1131.3161,-376.55848 L -1150.0661,-375.30848 L -1165.4411,-374.24598 L -1171.1286,-371.40223 L -1179.3474,-365.87098 L -1192.0349,-366.02723 L -1197.7536,-367.65223 L -1199.8786,-369.96473 L -1201.1286,-370.49598 L -1202.3786,-369.77723 L -1203.4724,-367.65223 L -1203.5661,-367.24598 L -1201.4411,-363.83973 L -1197.6599,-361.83973 L -1193.0974,-361.83973 L -1192.5974,-358.55848 L -1192.5974,-355.77723 L -1186.7849,-355.52723 L -1188.0349,-354.24598 L -1192.8474,-354.24598 L -1194.6286,-355.27723 L -1195.3786,-352.99598 L -1182.5036,-352.49598 L -1180.2224,-354.77723 L -1179.4724,-357.02723 L -1178.4411,-358.30848 L -1170.8786,-355.52723 L -1169.0974,-352.24598 L -1163.3161,-352.49598 L -1157.2536,-347.93348 L -1155.7224,-342.90223 L -1155.7224,-340.12098 L -1165.5661,-337.33973 L -1164.5661,-336.33973 L -1159.2536,-337.33973 L -1157.2536,-336.33973 L -1156.2224,-330.77723 L -1156.2224,-325.96473 L -1153.1911,-320.68348 L -1151.6911,-317.37098 L -1150.4099,-314.08973 L -1154.9724,-313.08973 L -1158.2536,-311.83973 L -1160.5349,-311.83973 L -1160.5349,-310.55848 L -1155.9724,-309.80848 L -1148.6599,-309.80848 L -1144.0974,-310.80848 L -1142.8474,-311.33973 L -1141.8474,-308.55848 L -1139.3161,-309.30848 L -1136.7849,-307.52723 L -1135.0036,-307.52723 L -1131.4724,-305.77723 L -1126.9411,-305.77723 L -1125.6599,-304.24598 L -1118.5974,-304.74598 L -1117.0974,-306.77723 L -1114.8161,-305.77723 L -1112.7849,-304.49598 L -1109.7536,-305.52723 L -1106.4724,-307.27723 L -1103.9411,-308.55848 L -1101.6911,-306.52723 C -1101.6911,-306.52724 -1104.4538,-305.25613 -1103.1911,-304.24598 C -1101.9284,-303.23582 -1101.1911,-301.21473 -1101.1911,-301.21473 L -1102.1911,-298.18348 L -1100.4099,-296.68348 L -1094.8786,-296.43348 L -1092.0974,-297.68348 L -1087.7849,-296.18348 L -1084.2536,-296.93348 L -1078.6911,-298.18348 L -1077.1911,-297.93348 C -1077.1911,-297.93347 -1076.17,-295.93602 -1075.1599,-295.68348 C -1074.1497,-295.43094 -1070.8786,-294.90223 -1070.8786,-294.90223 L -1067.0974,-295.40223 L -1064.5661,-297.93348 L -1063.8161,-299.46473 L -1061.0349,-297.68348 L -1059.2536,-294.65223 L -1054.7224,-292.65223 C -1054.7224,-292.65223 -1049.9226,-291.87098 -1048.6599,-291.87098 C -1047.3972,-291.87097 -1044.0974,-294.90223 -1044.0974,-294.90223 L -1040.5661,-290.87098 L -1032.7536,-291.62098 L -1031.4724,-289.87098 L -1029.7224,-293.40223 L -1027.1911,-294.65223 L -1024.9099,-295.93348 L -1024.1599,-297.93348 L -1023.9099,-294.65223 L -1022.3786,-292.65223 L -1021.6286,-289.62098 L -1018.0974,-289.87098 L -1017.0661,-291.37098 L -1015.5661,-289.62098 L -1013.0349,-287.83973 L -1008.2536,-287.83973 L -1006.4724,-290.12098 L -1003.9411,-289.33973 L -1002.4411,-292.37098 L -999.65986,-292.65223 L -998.65986,-291.62098 L -998.12861,-288.58973 L -997.62861,-287.58973 L -995.09736,-289.87098 L -992.84736,-289.87098 L -989.81611,-290.62098 L -984.00361,-290.87098 L -978.94111,-289.87098 L -975.90986,-290.87098 L -967.84736,-290.87098 L -959.25361,-291.12098 L -959.00361,-294.15223 L -955.22236,-295.40223 L -954.19111,-296.43348 L -958.25361,-300.96473 L -960.00361,-302.74598 L -962.78486,-302.74598 L -964.31611,-306.77723 L -962.28486,-307.27723 L -962.28486,-309.05848 L -965.56611,-310.30848 L -968.34736,-310.30848 L -968.34736,-313.08973 L -989.03486,-330.77723 L -991.56611,-330.77723 L -993.09736,-333.55848 L -995.62861,-336.83973 L -996.37861,-340.37098 L -997.12861,-355.52723 L -997.12861,-370.68348 L -997.37861,-385.80848 L -997.37861,-390.99598 z "
       id="path2296" />
    <path class="barrio"
        
       d="M -1213.8474,-482.05848 L -1183.6286,-452.99598 L -1179.7224,-452.27723 L -1171.1286,-445.68348 L -1170.0661,-443.37098 L -1162.0349,-436.02723 L -1132.9411,-390.68348 L -1132.7536,-376.74598 L -1132.3474,-376.49598 L -1131.3161,-376.55848 L -1105.5974,-377.99598 L -1092.9411,-380.68348 L -1077.0349,-384.96473 L -1067.3786,-386.93348 L -1061.6911,-387.99598 L -1058.6286,-388.18348 L -1052.9411,-386.93348 L -1043.4724,-384.62098 L -1033.2849,-382.12098 L -1023.4724,-381.40223 L -1012.5661,-381.40223 L -1009.5349,-382.46473 L -1007.3786,-384.24598 L -1005.0661,-386.40223 L -1004.1911,-388.90223 L -1003.8161,-391.21473 L -997.75361,-391.40223 L -997.37861,-390.99598 L -997.37861,-402.99598 L -996.87861,-437.33973 L -996.62861,-474.21473 L -996.37861,-497.43348 L -994.59736,-522.43348 L -993.59482,-538.34481 L -1014.0661,-550.74598 L -1017.5974,-551.74598 L -1022.6286,-555.27723 L -1027.9411,-558.55848 L -1033.7536,-562.58973 C -1033.7536,-562.58973 -1037.2722,-565.12098 -1038.5349,-565.12098 C -1039.7976,-565.12098 -1040.5661,-565.37098 -1040.5661,-565.37098 L -1044.3474,-569.43348 L -1047.6286,-569.43348 L -1051.6911,-571.18348 L -1056.4724,-573.21473 L -1060.0036,-596.43348 L -1125.6599,-547.96473 L -1161.2849,-561.83973 L -1161.2849,-562.08973 L -1162.2849,-558.05848 L -1162.7849,-553.77723 L -1162.2849,-548.71473 L -1164.8161,-545.18348 L -1164.5661,-540.87098 L -1166.3161,-536.33973 L -1167.8474,-529.27723 L -1172.9099,-524.21473 L -1185.0349,-501.49598 L -1186.5349,-497.68348 L -1187.0349,-496.18348 L -1191.0661,-496.18348 L -1192.5974,-494.40223 L -1197.9099,-491.90223 L -1203.1911,-489.62098 L -1207.7536,-487.58973 L -1211.5349,-483.30848 L -1213.8474,-482.05848 z "
       id="path2308"
       sodipodi:nodetypes="cccccccccccccccccccccccccccccccccccccccsccccccccccccccccccccccccccc" />
    <path class="barrio"
        
       d="M -1267.6286,-456.62098 L -1268.5974,-453.99598 L -1270.3786,-452.99598 L -1276.6911,-447.93348 L -1284.5349,-439.87098 L -1291.0974,-433.55848 L -1298.1599,-423.46473 L -1299.9099,-420.93348 L -1299.4099,-420.18348 L -1297.9099,-418.15223 L -1297.1599,-414.87098 L -1297.1599,-412.08973 L -1294.8786,-408.30848 L -1292.5974,-405.52723 L -1288.3161,-404.52723 L -1272.1599,-404.24598 L -1268.3474,-402.99598 L -1262.0349,-399.46473 L -1258.7536,-399.46473 L -1256.2224,-400.96473 L -1251.9411,-402.49598 L -1241.8474,-402.24598 L -1239.5661,-400.46473 L -1237.7849,-398.46473 L -1237.7849,-397.18348 L -1238.5661,-396.18348 L -1239.8161,-393.65223 L -1242.3474,-388.33973 L -1242.5974,-382.80848 L -1244.6286,-381.77723 L -1251.1911,-390.62098 L -1253.7224,-391.37098 L -1255.7224,-390.87098 L -1258.2536,-390.37098 L -1260.5349,-389.62098 L -1260.5349,-388.83973 L -1260.0349,-388.58973 L -1254.7224,-388.08973 L -1253.1911,-386.83973 L -1252.9411,-385.80848 L -1253.7224,-384.80848 L -1253.9724,-382.52723 L -1253.1911,-380.77723 L -1252.4411,-378.99598 L -1251.1911,-376.46473 L -1250.6911,-374.71473 L -1250.6911,-370.68348 L -1252.9411,-368.90223 L -1297.4099,-347.68348 L -1314.5661,-334.55848 L -1328.2224,-320.40223 L -1330.4724,-315.12098 L -1332.7536,-309.55848 L -1332.5661,-297.62098 L -1331.5036,-298.43348 L -1324.9411,-303.74598 L -1315.5661,-304.24598 L -1311.2849,-306.27723 L -1308.5036,-309.30848 L -1306.2224,-312.83973 L -1303.4724,-314.37098 L -1299.6599,-315.87098 L -1297.9099,-317.12098 L -1296.6286,-319.90223 L -1294.3786,-317.90223 L -1291.5974,-314.37098 L -1290.5661,-316.12098 L -1292.5974,-317.90223 L -1292.0974,-320.40223 L -1289.3161,-321.68348 L -1286.5349,-321.93348 L -1284.2536,-320.93348 L -1282.7536,-320.93348 L -1283.2536,-323.18348 L -1283.2536,-325.21473 L -1280.9724,-326.71473 L -1278.9724,-326.99598 L -1275.6911,-324.71473 L -1275.1911,-326.71473 L -1276.4411,-328.99598 L -1274.9099,-330.77723 L -1272.4099,-330.52723 L -1271.0349,-328.83973 L -1270.6286,-334.05848 L -1267.0974,-335.30848 L -1264.3161,-333.05848 L -1263.8161,-334.55848 L -1265.3161,-337.33973 L -1262.8161,-336.83973 L -1261.2849,-334.05848 L -1260.8786,-336.08973 L -1260.7849,-338.83973 L -1258.0036,-338.83973 L -1259.2536,-340.62098 L -1257.2536,-341.87098 L -1255.7224,-340.12098 L -1253.1911,-340.12098 L -1254.2224,-341.87098 L -1256.2224,-344.65223 L -1253.7224,-347.68348 L -1250.4411,-347.43348 L -1248.4099,-344.40223 L -1246.8786,-345.43348 L -1247.9099,-347.43348 L -1249.4099,-348.71473 L -1248.1599,-349.96473 L -1245.8786,-350.21473 L -1244.8786,-352.74598 L -1243.8474,-355.02723 L -1241.5974,-356.02723 L -1239.0661,-355.77723 L -1237.0349,-355.77723 L -1237.5349,-358.30848 L -1236.0349,-360.05848 L -1234.5036,-360.30848 L -1234.2536,-363.58973 L -1231.7536,-362.58973 C -1231.7536,-362.58973 -1232.4851,-366.12098 -1231.2224,-366.12098 C -1229.9597,-366.12099 -1225.9411,-367.65223 -1225.9411,-367.65223 L -1219.3786,-368.90223 L -1213.3161,-369.40223 L -1207.5036,-369.40223 L -1203.9724,-367.90223 L -1203.5661,-367.24598 L -1203.4724,-367.65223 L -1202.3786,-369.77723 L -1201.1286,-370.49598 L -1199.8786,-369.96473 L -1197.7536,-367.65223 L -1192.0349,-366.02723 L -1179.3474,-365.87098 L -1171.1286,-371.40223 L -1165.4411,-374.24598 L -1150.0661,-375.30848 L -1132.3474,-376.49598 L -1132.7536,-376.74598 L -1132.9411,-390.68348 L -1162.0349,-436.02723 L -1170.0661,-443.37098 L -1171.1286,-445.68348 L -1179.7224,-452.27723 L -1183.6286,-452.99598 L -1213.8474,-482.05848 L -1217.5974,-480.02723 L -1221.8786,-477.99598 L -1225.6911,-472.68348 L -1227.1911,-467.90223 L -1232.5036,-460.30848 L -1236.5349,-452.49598 L -1238.8161,-452.49598 L -1238.8161,-447.93348 L -1240.3161,-444.40223 L -1242.5974,-441.62098 L -1246.6286,-440.37098 L -1249.4099,-443.65223 L -1254.7224,-446.93348 L -1258.2536,-449.21473 L -1262.2849,-452.49598 L -1267.3474,-456.27723 L -1267.6286,-456.62098 z "
       id="path2313" />
    <path class="barrio"
        
       d="M -1279.5349,-471.80848 L -1279.9724,-471.68348 L -1287.5349,-455.02723 L -1290.5661,-452.24598 L -1308.7536,-410.05848 L -1327.4411,-416.37098 L -1341.3474,-416.12098 L -1343.8786,-417.15223 L -1359.7849,-417.40223 L -1362.5661,-416.37098 L -1374.1599,-416.87098 L -1374.5036,-416.62098 L -1373.8161,-416.55848 L -1373.2849,-410.49598 L -1371.8474,-403.18348 L -1369.5349,-395.87098 L -1366.1286,-386.93348 L -1362.5661,-379.77723 L -1357.9411,-372.80848 L -1360.5974,-369.96473 L -1365.2536,-363.71473 L -1370.5974,-354.05848 L -1375.4411,-346.93348 L -1379.1911,-341.02723 L -1389.7224,-330.68348 L -1389.9099,-330.71473 L -1397.6599,-325.96473 L -1400.1911,-325.71473 L -1402.9724,-322.93348 L -1396.3786,-316.12098 L -1392.8474,-319.90223 L -1386.2849,-312.33973 L -1391.3474,-307.52723 L -1397.1599,-301.71473 L -1399.4099,-298.18348 L -1401.9411,-293.40223 L -1402.9724,-292.12098 L -1402.7224,-285.80848 L -1400.4411,-282.02723 L -1400.4411,-281.83973 L -1400.2536,-281.93348 L -1396.6911,-275.15223 L -1396.6286,-271.43348 L -1396.2906,-256.40837 L -1398.7272,-250.76025 L -1398.6977,-247.46236 L -1395.6145,-247.54359 L -1394.1871,-248.62313 L -1391.4456,-250.19688 L -1385.6286,-252.35312 L -1381.8274,-254.83815 L -1375.8161,-259.71919 L -1372.9099,-264.62098 L -1368.4724,-265.38884 L -1367.2224,-267.79509 L -1367.8474,-269.15223 L -1366.0974,-270.93348 L -1362.8161,-271.93348 L -1359.2849,-270.15223 L -1358.7536,-267.62098 L -1361.0349,-265.87098 L -1359.7849,-264.08973 L -1356.5036,-267.12098 L -1353.7224,-268.15223 L -1350.9411,-270.15223 L -1350.9411,-273.43348 L -1349.1599,-276.96473 L -1349.6599,-281.02723 L -1343.6286,-287.33973 L -1337.8161,-293.65223 L -1332.5661,-297.62098 L -1332.7536,-309.55848 L -1330.4724,-315.12098 L -1328.2224,-320.40223 L -1314.5661,-334.55848 L -1297.4099,-347.68348 L -1252.9411,-368.90223 L -1250.6911,-370.68348 L -1250.6911,-374.71473 L -1251.1911,-376.46473 L -1252.4411,-378.99598 L -1253.1911,-380.77723 L -1253.9724,-382.52723 L -1253.7224,-384.80848 L -1252.9411,-385.80848 L -1253.1911,-386.83973 L -1254.7224,-388.08973 L -1260.0349,-388.58973 L -1260.5349,-388.83973 L -1260.5349,-389.62098 L -1258.2536,-390.37098 L -1255.7224,-390.87098 L -1253.7224,-391.37098 L -1251.1911,-390.62098 L -1244.6286,-381.77723 L -1242.5974,-382.80848 L -1242.3474,-388.33973 L -1239.8161,-393.65223 L -1238.5661,-396.18348 L -1237.7849,-397.18348 L -1237.7849,-398.46473 L -1239.5661,-400.46473 L -1241.8474,-402.24598 L -1251.9411,-402.49598 L -1256.2224,-400.96473 L -1258.7536,-399.46473 L -1262.0349,-399.46473 L -1268.3474,-402.99598 L -1272.1599,-404.24598 L -1288.3161,-404.52723 L -1292.5974,-405.52723 L -1294.8786,-408.30848 L -1297.1599,-412.08973 L -1297.1599,-414.87098 L -1297.9099,-418.15223 L -1299.4099,-420.18348 L -1299.9099,-420.93348 L -1298.1599,-423.46473 L -1291.0974,-433.55848 L -1284.5349,-439.87098 L -1276.6911,-447.93348 L -1270.3786,-452.99598 L -1268.5974,-453.99598 L -1267.6286,-456.62098 L -1269.3786,-458.80848 L -1271.8786,-462.33973 L -1273.4099,-465.62098 L -1279.7224,-471.18348 L -1279.5349,-471.80848 z "
       id="path2318"
       sodipodi:nodetypes="ccccccccccccccccccccccccccccccccccccccccccccccccccccccccccccccccccccccccccccccccccccccccccccccccccccccccccccccccccccccccccccccccc" />
    <path class="barrio"
        
       d="M -1340.8474,-621.05848 L -1340.8474,-617.65223 L -1341.5974,-615.62098 L -1345.8786,-615.37098 L -1351.4411,-614.12098 L -1355.4724,-612.58973 L -1357.0036,-608.55848 L -1359.0036,-604.27723 L -1362.5661,-599.21473 L -1365.3161,-598.71473 L -1368.3474,-601.74598 L -1375.1911,-608.05848 L -1381.7536,-611.58973 L -1389.5661,-611.33973 L -1395.1286,-610.58973 L -1400.6911,-609.05848 L -1403.9724,-607.55848 L -1405.4724,-607.05848 L -1406.2536,-609.55848 L -1410.0349,-611.83973 L -1415.0661,-613.62098 L -1418.6286,-613.62098 L -1421.6599,-612.58973 L -1424.4411,-611.83973 L -1426.6911,-609.05848 L -1429.7224,-605.27723 L -1435.7849,-598.46473 L -1440.5974,-591.90223 L -1443.6286,-585.83973 L -1445.3786,-574.46473 L -1445.6286,-571.43348 L -1447.4099,-569.43348 L -1449.1599,-567.15223 L -1450.6911,-562.83973 L -1452.4724,-560.08973 L -1452.9724,-557.05848 L -1451.9411,-552.74598 L -1452.7224,-550.46473 L -1454.4724,-548.46473 L -1455.7536,-544.43348 L -1456.5036,-541.12098 L -1458.7849,-540.12098 L -1463.8161,-536.58973 L -1463.8161,-533.05848 L -1468.3786,-527.24598 L -1479.7224,-508.30848 L -1480.7536,-501.49598 L -1482.7536,-494.68348 L -1482.5036,-491.37098 L -1481.5036,-491.12098 L -1479.4724,-489.62098 L -1475.9411,-486.33973 L -1476.4411,-484.80848 L -1479.4724,-484.80848 L -1480.7536,-482.30848 L -1480.5036,-476.74598 C -1480.4873,-476.73501 -1480.5468,-476.57947 -1480.5349,-476.55848 L -1479.0036,-476.55848 L -1478.0974,-473.37098 L -1477.9411,-468.71473 L -1479.1911,-466.55848 L -1479.1911,-465.68348 L -1476.8474,-465.68348 L -1475.7849,-466.74598 L -1474.0036,-466.74598 L -1470.5974,-457.80848 L -1470.2536,-456.93348 L -1470.2536,-454.96473 L -1470.7849,-454.24598 L -1470.7849,-451.96473 L -1466.8474,-450.15223 L -1468.0974,-446.93348 L -1467.3786,-439.43348 L -1467.0974,-438.99598 L -1462.1911,-437.83973 L -1457.2536,-436.21473 L -1454.3474,-433.93348 L -1453.5974,-431.77723 L -1452.1286,-423.18348 L -1439.3474,-424.24598 L -1433.4724,-424.43348 L -1428.4724,-422.65223 L -1396.5036,-420.15223 L -1386.1286,-417.80848 L -1374.5036,-416.62098 L -1374.1599,-416.87098 L -1362.5661,-416.37098 L -1359.7849,-417.40223 L -1343.8786,-417.15223 L -1341.3474,-416.12098 L -1327.4411,-416.37098 L -1308.7536,-410.05848 L -1290.5661,-452.24598 L -1287.5349,-455.02723 L -1279.9724,-471.68348 L -1279.5349,-471.80848 L -1258.5036,-544.43348 L -1236.7849,-563.12098 L -1257.5036,-574.46473 L -1267.8474,-583.30848 L -1269.1286,-579.77723 L -1271.1286,-579.02723 L -1275.9411,-579.02723 L -1280.2224,-582.05848 L -1282.0036,-577.74598 L -1284.7849,-575.21473 L -1290.5661,-573.71473 L -1291.3474,-577.99598 L -1294.3786,-581.02723 L -1294.3786,-583.05848 L -1296.1286,-583.80848 L -1297.4099,-587.33973 L -1299.9099,-590.87098 L -1301.4411,-592.15223 L -1301.4411,-594.68348 L -1304.2224,-596.68348 L -1305.7224,-598.71473 L -1305.7224,-602.99598 L -1303.4724,-604.02723 L -1304.7224,-606.02723 L -1308.7536,-610.58973 L -1311.5349,-614.37098 L -1314.8161,-617.40223 L -1318.3474,-619.18348 L -1320.1286,-623.21473 L -1321.9099,-625.74598 L -1340.8474,-621.05848 z "
       id="path2360" />
    <path class="barrio"
        
       d="M -1584.2536,-494.55848 L -1575.4411,-486.08973 L -1572.4099,-482.30848 L -1569.8786,-477.24598 L -1556.5036,-430.80848 L -1556.3161,-430.87098 L -1554.5349,-422.80848 L -1554.4724,-422.74598 L -1554.5349,-422.99598 L -1526.6911,-431.40223 L -1526.1286,-437.80848 L -1529.8786,-455.30848 L -1538.0974,-457.27723 L -1538.2849,-462.46473 L -1542.5661,-462.46473 L -1542.7536,-464.62098 L -1543.2849,-465.87098 L -1540.2536,-466.55848 L -1534.7224,-475.68348 L -1529.1911,-475.68348 L -1524.7224,-470.49598 L -1523.6286,-464.62098 L -1516.8474,-464.62098 L -1516.8474,-456.55848 L -1504.7224,-456.55848 L -1505.0661,-462.46473 L -1506.3161,-469.05848 L -1508.0974,-472.99598 L -1509.5349,-481.93348 L -1511.8474,-486.40223 L -1513.8161,-489.24598 L -1515.2536,-491.40223 L -1515.2536,-495.87098 L -1515.1599,-495.87098 L -1515.3474,-496.18348 L -1519.3786,-495.68348 L -1545.3786,-495.93348 L -1558.5349,-496.68348 L -1558.5349,-496.93348 L -1558.7849,-496.43348 L -1584.2536,-494.55848 z "
       id="path2370" />
    <path class="barrio"
        
       d="M -1756.4411,-535.30848 L -1756.5036,-535.15223 L -1759.0036,-495.49598 L -1761.8474,-445.49598 L -1762.9411,-347.65223 L -1761.8474,-339.43348 L -1759.0036,-329.43348 L -1752.9411,-317.27723 L -1745.4411,-304.43348 L -1734.7224,-290.49598 L -1727.2224,-282.99598 L -1718.6286,-276.21473 L -1710.7849,-271.21473 L -1705.4411,-268.37098 L -1700.0661,-265.87098 L -1693.2849,-263.37098 L -1683.6286,-260.87098 L -1675.7849,-258.71473 L -1666.8474,-256.55848 L -1661.8474,-255.87098 L -1653.6286,-254.43348 L -1648.2849,-254.43348 L -1641.8474,-255.15223 L -1640.0661,-255.15223 L -1637.5661,-252.65223 L -1637.4411,-252.37098 L -1637.4099,-252.33973 L -1634.7849,-250.46473 L -1631.7536,-248.43348 L -1628.3474,-246.30848 L -1623.9411,-244.02723 L -1619.1286,-242.37098 L -1614.5974,-240.49598 L -1610.9099,-239.08973 L -1610.9099,-239.02723 L -1610.7849,-239.08973 L -1585.1599,-228.62098 L -1585.4411,-229.05848 L -1581.1286,-231.93348 L -1572.5661,-235.15223 L -1565.4411,-236.93348 L -1545.7849,-264.05848 L -1542.2224,-259.05848 L -1531.1286,-266.55848 L -1536.8474,-280.49598 L -1525.0661,-293.71473 L -1517.2224,-312.27723 L -1515.6286,-312.18348 L -1515.5974,-312.46473 L -1514.7224,-315.68348 L -1514.7224,-319.96473 L -1520.6911,-328.93348 L -1520.9099,-328.99598 L -1533.0036,-321.43348 L -1545.8786,-342.21473 L -1551.9724,-337.58973 L -1553.7224,-333.55848 L -1560.2849,-336.05848 L -1562.0661,-338.33973 L -1567.0974,-338.33973 L -1567.0974,-335.30848 L -1569.3786,-330.77723 L -1602.7224,-351.74598 L -1604.7224,-354.24598 L -1604.5661,-354.37098 L -1604.8786,-354.43348 L -1612.5661,-362.99598 L -1612.4411,-363.08973 L -1612.9411,-363.18348 L -1624.5349,-395.15223 L -1624.5036,-395.18348 L -1647.4099,-394.15223 L -1680.7536,-418.65223 L -1676.4724,-449.21473 L -1660.2849,-463.33973 L -1688.0661,-487.08973 L -1711.3161,-516.65223 L -1756.4411,-535.30848 z "
       id="path2378" />
    <path class="barrio"
        
       d="M -1756.4411,-535.30848 L -1711.3161,-516.65223 L -1688.0661,-487.08973 L -1660.2849,-463.33973 L -1676.4724,-449.21473 L -1680.7536,-418.65223 L -1647.4099,-394.15223 L -1624.5036,-395.18348 L -1616.3161,-407.27723 L -1556.5036,-430.77723 L -1556.5036,-430.80848 L -1569.8786,-477.24598 L -1572.4099,-482.30848 L -1575.4411,-486.08973 L -1584.2536,-494.55848 L -1589.8474,-494.15223 L -1600.4411,-493.40223 L -1612.3161,-494.40223 L -1622.1599,-496.43348 L -1633.2849,-497.96473 L -1649.9411,-498.96473 L -1671.1599,-499.21473 L -1703.2224,-531.02723 L -1750.2849,-550.49598 L -1756.4411,-535.30848 z "
       id="path2365" />
    <path class="barrio"
        
       d="M -1558.5349,-496.93348 L -1558.5349,-496.68348 L -1545.3786,-495.93348 L -1519.3786,-495.68348 L -1515.3474,-496.18348 L -1514.6548,-496.12352 L -1509.3474,-496.02723 L -1505.9724,-494.43348 L -1500.7849,-494.43348 L -1500.5974,-488.37098 L -1497.5661,-482.80848 L -1494.5974,-474.21473 L -1494.5349,-474.24598 L -1481.8474,-476.55848 L -1480.5349,-476.55848 C -1480.5468,-476.57947 -1480.4873,-476.73501 -1480.5036,-476.74598 L -1480.7536,-482.30848 L -1479.4724,-484.80848 L -1476.4411,-484.80848 L -1475.9411,-486.33973 L -1479.4724,-489.62098 L -1481.5036,-491.12098 L -1482.5036,-491.37098 L -1482.7536,-494.68348 L -1480.7536,-501.49598 L -1479.7224,-508.30848 L -1468.3786,-527.24598 L -1463.8161,-533.05848 L -1463.8161,-536.58973 L -1458.7849,-540.12098 L -1456.5036,-541.12098 L -1455.7536,-544.43348 L -1454.4724,-548.46473 L -1452.7224,-550.46473 L -1451.9411,-552.74598 L -1452.9724,-557.05848 L -1452.4724,-560.08973 L -1450.6911,-562.83973 L -1449.1599,-567.15223 L -1447.4099,-569.43348 L -1445.6286,-571.43348 L -1445.3786,-574.46473 L -1443.6286,-585.83973 L -1440.5974,-591.90223 L -1435.7849,-598.46473 L -1429.7224,-605.27723 L -1426.6911,-609.05848 L -1424.4411,-611.83973 L -1421.6599,-612.58973 L -1418.6286,-613.62098 L -1415.0661,-613.62098 L -1410.0349,-611.83973 L -1406.2536,-609.55848 L -1405.4724,-607.05848 L -1403.9724,-607.55848 L -1400.6911,-609.05848 L -1395.1286,-610.58973 L -1389.5661,-611.33973 L -1381.7536,-611.58973 L -1375.1911,-608.05848 L -1368.3474,-601.74598 L -1365.3161,-598.71473 L -1362.5661,-599.21473 L -1359.0036,-604.27723 L -1357.0036,-608.55848 L -1355.4724,-612.58973 L -1351.4411,-614.12098 L -1345.8786,-615.37098 L -1341.5974,-615.62098 L -1340.8474,-617.65223 L -1340.8474,-621.05848 L -1341.3474,-620.93348 L -1384.5349,-643.65223 L -1403.9724,-667.90223 L -1413.8161,-671.96473 L -1382.2536,-706.80848 L -1386.7849,-727.24598 L -1378.7224,-742.40223 L -1389.0661,-751.99598 L -1426.4411,-725.24598 L -1423.9099,-702.49598 L -1450.9411,-680.27723 L -1455.4724,-666.90223 L -1481.7536,-679.02723 L -1489.0661,-652.49598 L -1505.2224,-670.43348 L -1520.1286,-654.27723 L -1530.2536,-659.58973 L -1545.3786,-626.49598 L -1523.1599,-613.37098 L -1527.9724,-597.18348 L -1529.4724,-591.15223 L -1530.7536,-581.52723 L -1534.5349,-569.43348 L -1537.0661,-558.80848 L -1537.5661,-556.27723 L -1535.5036,-540.93348 L -1558.5349,-496.93348 z "
       id="path2238"
       sodipodi:nodetypes="cccccccccccccccccccccccccccccccccccccccccccccccccccccccccccccccccccccccccccccccccccccccccccccccccc" />

    <text
       xml:space="preserve"
       style="font-size:17.32282066px;font-style:normal;font-weight:normal;fill:#000000;fill-opacity:1;stroke:none;stroke-width:1px;stroke-linecap:butt;stroke-linejoin:round;stroke-opacity:1;font-family:Bitstream Vera Sans"
       x="-1450.0972"
       y="-219.79437"
       id="text4373"><tspan
         sodipodi:role="line"
         x="-1450.0972"
         y="-219.79437"
         id="tspan4381">1 </tspan></text>
    <text
       xml:space="preserve"
       style="font-size:14.10473728px;font-style:normal;font-weight:normal;fill:#000000;fill-opacity:1;stroke:none;stroke-width:1px;stroke-linecap:butt;stroke-linejoin:round;stroke-opacity:1;font-family:Bitstream Vera Sans"
       x="-1405.6814"
       y="-253.90202"
       id="text4397"><tspan
         sodipodi:role="line"
         id="tspan4399"
         x="-1405.6814"
         y="-253.90202">3</tspan></text>
    <text
       xml:space="preserve"
       style="font-size:28.35956573px;font-style:normal;font-weight:normal;fill:#000000;fill-opacity:1;stroke:none;stroke-width:1px;stroke-linecap:butt;stroke-linejoin:round;stroke-opacity:1;font-family:Bitstream Vera Sans"
       x="-1442.9376"
       y="-248.37297"
       id="text4401"><tspan
         sodipodi:role="line"
         id="tspan4403"
         x="-1442.9376"
         y="-248.37297">2</tspan></text>
    <text
       xml:space="preserve"
       style="font-size:23.28097343px;font-style:normal;font-weight:normal;fill:#000000;fill-opacity:1;stroke:none;stroke-width:1px;stroke-linecap:butt;stroke-linejoin:round;stroke-opacity:1;font-family:Bitstream Vera Sans"
       x="-1487.6158"
       y="-211.41023"
       id="text4405"><tspan
         sodipodi:role="line"
         id="tspan4407"
         x="-1487.6158"
         y="-211.41023">4</tspan></text>
    <text
       xml:space="preserve"
       style="font-size:48px;font-style:normal;font-weight:normal;fill:#000000;fill-opacity:1;stroke:none;stroke-width:1px;stroke-linecap:butt;stroke-linejoin:round;stroke-opacity:1;font-family:Bitstream Vera Sans"
       x="-1517.8647"
       y="-152.22629"
       id="text4409"><tspan
         sodipodi:role="line"
         id="tspan4411"
         x="-1517.8647"
         y="-152.22629">5</tspan></text>
    <text
       xml:space="preserve"
       style="font-size:27.93411827px;font-style:normal;font-weight:normal;fill:#000000;fill-opacity:1;stroke:none;stroke-width:1px;stroke-linecap:butt;stroke-linejoin:round;stroke-opacity:1;font-family:Bitstream Vera Sans"
       x="-1502.5741"
       y="-240.60751"
       id="text4413"><tspan
         sodipodi:role="line"
         id="tspan4415"
         x="-1502.5741"
         y="-240.60751">6</tspan></text>
    <text
       xml:space="preserve"
       style="font-size:24.29508781px;font-style:normal;font-weight:normal;fill:#000000;fill-opacity:1;stroke:none;stroke-width:1px;stroke-linecap:butt;stroke-linejoin:round;stroke-opacity:1;font-family:Bitstream Vera Sans"
       x="-1525.2642"
       y="-266.22934"
       id="text4417"><tspan
         sodipodi:role="line"
         id="tspan4419"
         x="-1525.2642"
         y="-266.22934">7</tspan></text>
    <text
       xml:space="preserve"
       style="font-size:48px;font-style:normal;font-weight:normal;fill:#000000;fill-opacity:1;stroke:none;stroke-width:1px;stroke-linecap:butt;stroke-linejoin:round;stroke-opacity:1;font-family:Bitstream Vera Sans"
       x="-1676.8127"
       y="-314.53653"
       id="text4421"><tspan
         sodipodi:role="line"
         id="tspan4423"
         x="-1676.8127"
         y="-314.53653">8</tspan></text>
    <text
       xml:space="preserve"
       style="font-size:31.93170929px;font-style:normal;font-weight:normal;fill:#000000;fill-opacity:1;stroke:none;stroke-width:1px;stroke-linecap:butt;stroke-linejoin:round;stroke-opacity:1;font-family:Bitstream Vera Sans"
       x="-1499.1749"
       y="-294.46164"
       id="text4425"><tspan
         sodipodi:role="line"
         id="tspan4427"
         x="-1499.1749"
         y="-294.46164">9</tspan></text>
    <text
       xml:space="preserve"
       style="font-size:25.2953701px;font-style:normal;font-weight:normal;fill:#000000;fill-opacity:1;stroke:none;stroke-width:1px;stroke-linecap:butt;stroke-linejoin:round;stroke-opacity:1;font-family:Bitstream Vera Sans"
       x="-1511.5822"
       y="-348.63196"
       id="text4429"><tspan
         sodipodi:role="line"
         id="tspan4431"
         x="-1511.5822"
         y="-348.63196">10</tspan></text>
    <text
       xml:space="preserve"
       style="font-size:16.86906052px;font-style:normal;font-weight:normal;fill:#000000;fill-opacity:1;stroke:none;stroke-width:1px;stroke-linecap:butt;stroke-linejoin:round;stroke-opacity:1;font-family:Bitstream Vera Sans"
       x="-1551.5677"
       y="-352.70773"
       id="text4433"><tspan
         sodipodi:role="line"
         id="tspan4435"
         x="-1551.5677"
         y="-352.70773">11</tspan></text>
    <text
       xml:space="preserve"
       style="font-size:21.39173698px;font-style:normal;font-weight:normal;fill:#000000;fill-opacity:1;stroke:none;stroke-width:1px;stroke-linecap:butt;stroke-linejoin:round;stroke-opacity:1;font-family:Bitstream Vera Sans"
       x="-1588.6826"
       y="-346.22592"
       id="text4437"><tspan
         sodipodi:role="line"
         id="tspan4439"
         x="-1588.6826"
         y="-346.22592">12</tspan></text>
    <text
       xml:space="preserve"
       style="font-size:15.73565388px;font-style:normal;font-weight:normal;fill:#000000;fill-opacity:1;stroke:none;stroke-width:1px;stroke-linecap:butt;stroke-linejoin:round;stroke-opacity:1;font-family:Bitstream Vera Sans"
       x="-1470.126"
       y="-379.7182"
       id="text4441"><tspan
         sodipodi:role="line"
         id="tspan4443"
         x="-1470.126"
         y="-379.7182">13</tspan></text>
    <text
       xml:space="preserve"
       style="font-size:23.05809593px;font-style:normal;font-weight:normal;fill:#000000;fill-opacity:1;stroke:none;stroke-width:1px;stroke-linecap:butt;stroke-linejoin:round;stroke-opacity:1;font-family:Bitstream Vera Sans"
       x="-1563.8644"
       y="-172.17682"
       id="text4445"><tspan
         sodipodi:role="line"
         id="tspan4447"
         x="-1563.8644"
         y="-172.17682">14</tspan></text>
    <text
       xml:space="preserve"
       style="font-size:22.17407608px;font-style:normal;font-weight:normal;fill:#000000;fill-opacity:1;stroke:none;stroke-width:1px;stroke-linecap:butt;stroke-linejoin:round;stroke-opacity:1;font-family:Bitstream Vera Sans"
       x="-1572.8588"
       y="-205.14615"
       id="text4449"><tspan
         sodipodi:role="line"
         id="tspan4451"
         x="-1572.8588"
         y="-205.14615">15</tspan></text>
    <text
       xml:space="preserve"
       style="font-size:14.61083984px;font-style:normal;font-weight:normal;fill:#000000;fill-opacity:1;stroke:none;stroke-width:1px;stroke-linecap:butt;stroke-linejoin:round;stroke-opacity:1;font-family:Bitstream Vera Sans"
       x="-1611.4238"
       y="-212.40599"
       id="text4453"><tspan
         sodipodi:role="line"
         id="tspan4455"
         x="-1611.4238"
         y="-212.40599">16</tspan></text>
    <text
       xml:space="preserve"
       style="font-size:17.51544952px;font-style:normal;font-weight:normal;fill:#000000;fill-opacity:1;stroke:none;stroke-width:1px;stroke-linecap:butt;stroke-linejoin:round;stroke-opacity:1;font-family:Bitstream Vera Sans"
       x="-1637.2491"
       y="-225.96742"
       id="text4457"><tspan
         sodipodi:role="line"
         id="tspan4459"
         x="-1637.2491"
         y="-225.96742">17</tspan></text>
    <text
       xml:space="preserve"
       style="font-size:34.6443367px;font-style:normal;font-weight:normal;fill:#000000;fill-opacity:1;stroke:none;stroke-width:1px;stroke-linecap:butt;stroke-linejoin:round;stroke-opacity:1;font-family:Bitstream Vera Sans"
       x="-1672.4661"
       y="-182.34177"
       id="text4461"><tspan
         sodipodi:role="line"
         id="tspan4463"
         x="-1672.4661"
         y="-182.34177">18</tspan></text>
    <text
       xml:space="preserve"
       style="font-size:48px;font-style:normal;font-weight:normal;fill:#000000;fill-opacity:1;stroke:none;stroke-width:1px;stroke-linecap:butt;stroke-linejoin:round;stroke-opacity:1;font-family:Bitstream Vera Sans"
       x="-1765.6047"
       y="-216.55173"
       id="text4465"><tspan
         sodipodi:role="line"
         id="tspan4467"
         x="-1765.6047"
         y="-216.55173">19</tspan></text>
    <text
       xml:space="preserve"
       style="font-size:48px;font-style:normal;font-weight:normal;fill:#000000;fill-opacity:1;stroke:none;stroke-width:1px;stroke-linecap:butt;stroke-linejoin:round;stroke-opacity:1;font-family:Bitstream Vera Sans"
       x="-1661.559"
       y="-126.71993"
       id="text4469"><tspan
         sodipodi:role="line"
         id="tspan4471"
         x="-1661.559"
         y="-126.71993">20</tspan></text>
    <text
       xml:space="preserve"
       style="font-size:25.19585037px;font-style:normal;font-weight:normal;fill:#000000;fill-opacity:1;stroke:none;stroke-width:1px;stroke-linecap:butt;stroke-linejoin:round;stroke-opacity:1;font-family:Bitstream Vera Sans"
       x="-1657.8684"
       y="-81.015434"
       id="text4473"><tspan
         sodipodi:role="line"
         id="tspan4475"
         x="-1657.8684"
         y="-81.015434">21</tspan></text>
    <text
       xml:space="preserve"
       style="font-size:18.22671127px;font-style:normal;font-weight:normal;fill:#000000;fill-opacity:1;stroke:none;stroke-width:1px;stroke-linecap:butt;stroke-linejoin:round;stroke-opacity:1;font-family:Bitstream Vera Sans"
       x="-1425.528"
       y="-307.41125"
       id="text4481"><tspan
         sodipodi:role="line"
         id="tspan4483"
         x="-1425.528"
         y="-307.41125">23</tspan></text>
    <text
       xml:space="preserve"
       style="font-size:23.5011425px;font-style:normal;font-weight:normal;fill:#000000;fill-opacity:1;stroke:none;stroke-width:1px;stroke-linecap:butt;stroke-linejoin:round;stroke-opacity:1;font-family:Bitstream Vera Sans"
       x="-1462.2798"
       y="-330.77078"
       id="text4485"><tspan
         sodipodi:role="line"
         id="tspan4487"
         x="-1462.2798"
         y="-330.77078">24</tspan></text>
    <text
       xml:space="preserve"
       style="font-size:20.75514793px;font-style:normal;font-weight:normal;fill:#000000;fill-opacity:1;stroke:none;stroke-width:1px;stroke-linecap:butt;stroke-linejoin:round;stroke-opacity:1;font-family:Bitstream Vera Sans"
       x="-1467.6344"
       y="-290.12988"
       id="text4489"><tspan
         sodipodi:role="line"
         id="tspan4491"
         x="-1467.6344"
         y="-290.12988">25</tspan></text>
    <text
       xml:space="preserve"
       style="font-size:48px;font-style:normal;font-weight:normal;fill:#000000;fill-opacity:1;stroke:none;stroke-width:1px;stroke-linecap:butt;stroke-linejoin:round;stroke-opacity:1;font-family:Bitstream Vera Sans"
       x="-1437.9547"
       y="-369.24637"
       id="text4493"><tspan
         sodipodi:role="line"
         id="tspan4495"
         x="-1437.9547"
         y="-369.24637">26</tspan></text>
    <text
       xml:space="preserve"
       style="font-size:21.70947456px;font-style:normal;font-weight:normal;fill:#000000;fill-opacity:1;stroke:none;stroke-width:1px;stroke-linecap:butt;stroke-linejoin:round;stroke-opacity:1;font-family:Bitstream Vera Sans"
       x="-1611.6511"
       y="-387.15381"
       id="text4497"><tspan
         sodipodi:role="line"
         id="tspan4499"
         x="-1611.6511"
         y="-387.15381">27</tspan></text>
    <text
       xml:space="preserve"
       style="font-size:14.96360874px;font-style:normal;font-weight:normal;fill:#000000;fill-opacity:1;stroke:none;stroke-width:1px;stroke-linecap:butt;stroke-linejoin:round;stroke-opacity:1;font-family:Bitstream Vera Sans"
       x="-1569.2357"
       y="-394.68585"
       id="text4501"><tspan
         sodipodi:role="line"
         id="tspan4503"
         x="-1569.2357"
         y="-394.68585">28</tspan></text>
    <text
       xml:space="preserve"
       style="font-size:48px;font-style:normal;font-weight:normal;fill:#000000;fill-opacity:1;stroke:none;stroke-width:1px;stroke-linecap:butt;stroke-linejoin:round;stroke-opacity:1;font-family:Bitstream Vera Sans"
       x="-1650.9523"
       y="-438.60449"
       id="text4505"><tspan
         sodipodi:role="line"
         id="tspan4507"
         x="-1650.9523"
         y="-438.60449">29</tspan></text>
    <text
       xml:space="preserve"
       style="font-size:23.07596588px;font-style:normal;font-weight:normal;fill:#000000;fill-opacity:1;stroke:none;stroke-width:1px;stroke-linecap:butt;stroke-linejoin:round;stroke-opacity:1;font-family:Bitstream Vera Sans"
       x="-1567.2314"
       y="-471.75006"
       id="text4509"><tspan
         sodipodi:role="line"
         id="tspan4511"
         x="-1567.2314"
         y="-471.75006">30</tspan></text>

    <text
       xml:space="preserve"
       style="font-size:22.20802879px;font-style:normal;font-weight:normal;fill:#000000;fill-opacity:1;stroke:none;stroke-width:1px;stroke-linecap:butt;stroke-linejoin:round;stroke-opacity:1;font-family:Bitstream Vera Sans"
       x="-1516.9509"
       y="-393.64111"
       id="text4517"><tspan
         sodipodi:role="line"
         id="tspan4519"
         x="-1516.9509"
         y="-393.64111">32</tspan></text>
    <text
       xml:space="preserve"
       style="font-size:12.60748959px;font-style:normal;font-weight:normal;fill:#000000;fill-opacity:1;stroke:none;stroke-width:1px;stroke-linecap:butt;stroke-linejoin:round;stroke-opacity:1;font-family:Bitstream Vera Sans"
       x="-1489.6506"
       y="-454.51837"
       id="text4521"><tspan
         sodipodi:role="line"
         id="tspan4523"
         x="-1489.6506"
         y="-454.51837">33</tspan></text>
    <text
       xml:space="preserve"
       style="font-size:11.35630798px;font-style:normal;font-weight:normal;fill:#000000;fill-opacity:1;stroke:none;stroke-width:1px;stroke-linecap:butt;stroke-linejoin:round;stroke-opacity:1;font-family:Bitstream Vera Sans"
       x="-1481.9208"
       y="-418.1586"
       id="text4525"><tspan
         sodipodi:role="line"
         id="tspan4527"
         x="-1481.9208"
         y="-418.1586">34</tspan></text>
    <text
       xml:space="preserve"
       style="font-size:10.60414028px;font-style:normal;font-weight:normal;fill:#000000;fill-opacity:1;stroke:none;stroke-width:1px;stroke-linecap:butt;stroke-linejoin:round;stroke-opacity:1;font-family:Bitstream Vera Sans"
       x="-1464.7611"
       y="-406.25522"
       id="text4529"><tspan
         sodipodi:role="line"
         id="tspan4531"
         x="-1464.7611"
         y="-406.25522">35</tspan></text>
    <text
       xml:space="preserve"
       style="font-size:48px;font-style:normal;font-weight:normal;fill:#000000;fill-opacity:1;stroke:none;stroke-width:1px;stroke-linecap:butt;stroke-linejoin:round;stroke-opacity:1;font-family:Bitstream Vera Sans"
       x="-1401.9954"
       y="-500.14478"
       id="text4533"><tspan
         sodipodi:role="line"
         id="tspan4535"
         x="-1401.9954"
         y="-500.14478">36</tspan></text>
    <text
       xml:space="preserve"
       style="font-size:48px;font-style:normal;font-weight:normal;fill:#000000;fill-opacity:1;stroke:none;stroke-width:1px;stroke-linecap:butt;stroke-linejoin:round;stroke-opacity:1;font-family:Bitstream Vera Sans"
       x="-1351.2616"
       y="-358.66547"
       id="text4537"><tspan
         sodipodi:role="line"
         id="tspan4539"
         x="-1351.2616"
         y="-358.66547">37</tspan></text>
    <text
       xml:space="preserve"
       style="font-size:48px;font-style:normal;font-weight:normal;fill:#000000;fill-opacity:1;stroke:none;stroke-width:1px;stroke-linecap:butt;stroke-linejoin:round;stroke-opacity:1;font-family:Bitstream Vera Sans"
       x="-1230.25"
       y="-396.33191"
       id="text4541"><tspan
         sodipodi:role="line"
         id="tspan4543"
         x="-1230.25"
         y="-396.33191">38</tspan></text>
    <text
       xml:space="preserve"
       style="font-size:48px;font-style:normal;font-weight:normal;fill:#000000;fill-opacity:1;stroke:none;stroke-width:1px;stroke-linecap:butt;stroke-linejoin:round;stroke-opacity:1;font-family:Bitstream Vera Sans"
       x="-1093.0579"
       y="-327.53629"
       id="text4545"><tspan
         sodipodi:role="line"
         id="tspan4547"
         x="-1093.0579"
         y="-327.53629">39</tspan></text>
    <text
       xml:space="preserve"
       style="font-size:48px;font-style:normal;font-weight:normal;fill:#000000;fill-opacity:1;stroke:none;stroke-width:1px;stroke-linecap:butt;stroke-linejoin:round;stroke-opacity:1;font-family:Bitstream Vera Sans"
       x="-1112.6046"
       y="-462.02512"
       id="text4549"><tspan
         sodipodi:role="line"
         id="tspan4551"
         x="-1112.6046"
         y="-462.02512">40</tspan></text>
    <text
       xml:space="preserve"
       style="font-size:48px;font-style:normal;font-weight:normal;fill:#000000;fill-opacity:1;stroke:none;stroke-width:1px;stroke-linecap:butt;stroke-linejoin:round;stroke-opacity:1;font-family:Bitstream Vera Sans"
       x="-1509.553"
       y="-602.07379"
       id="text4553"><tspan
         sodipodi:role="line"
         id="tspan4555"
         x="-1509.553"
         y="-602.07379">41</tspan></text>
    <text
       xml:space="preserve"
       style="font-size:48px;font-style:normal;font-weight:normal;fill:#000000;fill-opacity:1;stroke:none;stroke-width:1px;stroke-linecap:butt;stroke-linejoin:round;stroke-opacity:1;font-family:Bitstream Vera Sans"
       x="-1802.2466"
       y="-32.729874"
       id="text4557"><tspan
         sodipodi:role="line"
         id="tspan4559"
         x="-1802.2466"
         y="-32.729874"
         style="font-weight:normal">42*</tspan></text>
  </g>
</svg>
